<svg xmlns="http://www.w3.org/2000/svg" xmlns:xlink="http://www.w3.org/1999/xlink" viewBox="0 0 1920.5 1080.5"><defs><style>.cls-1{fill:url(#linear-gradient);}.cls-2{fill:url(#linear-gradient-2);}</style><linearGradient id="linear-gradient" x1="1145.92" y1="-138.25" x2="-143.89" y2="990.52" gradientUnits="userSpaceOnUse"><stop offset="0" stop-color="#6d12e3"/><stop offset="0.12" stop-color="#7016e4"/><stop offset="0.25" stop-color="#7824e5"/><stop offset="0.38" stop-color="#8539e8"/><stop offset="0.52" stop-color="#9858eb"/><stop offset="0.66" stop-color="#b07ff0"/><stop offset="0.8" stop-color="#ceaff6"/><stop offset="0.94" stop-color="#f0e7fc"/><stop offset="1" stop-color="#fff"/></linearGradient><linearGradient id="linear-gradient-2" x1="2048.83" y1="736.96" x2="1143.75" y2="1529.05" gradientTransform="translate(3145.41 1916.71) rotate(180)" xlink:href="#linear-gradient"/></defs><g id="Layer_2" data-name="Layer 2"><g id="Layer_1-2" data-name="Layer 1"><path class="cls-1" d="M0,0V1080H211S190.5,911.5,367.5,784.5s462-126,614-206,153-232,354-311,420-94,492-142,92-94,92-94L1920,0Z"/><path class="cls-2" d="M551,1080l1368.5.5,1-733c-177,127-279.29,74.35-431.29,154.35s-153,232-354,311c-139.73,54.92-318.7,91.06-439,124.12A208.62,208.62,0,0,0,551,1080Z"/></g></g></svg>